<mxfile host="app.diagrams.net" modified="2021-12-13T13:28:36.191Z" agent="5.0 (Macintosh; Intel Mac OS X 10_15_7) AppleWebKit/537.36 (KHTML, like Gecko) Chrome/96.0.4664.93 Safari/537.36" etag="qOWCTvZ4YKL7Dmeo6N5B" version="15.9.4" type="github">
  <diagram id="SVGDd0DbnBZiqsVmICR7" name="第 1 页">
    <mxGraphModel dx="668" dy="428" grid="1" gridSize="10" guides="1" tooltips="1" connect="1" arrows="1" fold="1" page="1" pageScale="1" pageWidth="827" pageHeight="1169" math="0" shadow="0">
      <root>
        <mxCell id="0" />
        <mxCell id="1" parent="0" />
        <mxCell id="XFPlNN1l338RoupQk237-89" value="" style="rounded=0;whiteSpace=wrap;html=1;fontFamily=Helvetica;fontSize=16;fillColor=#dae8fc;strokeColor=#6c8ebf;" parent="1" vertex="1">
          <mxGeometry x="240" y="1160" width="40" height="40" as="geometry" />
        </mxCell>
        <mxCell id="JjnWdpa1GhNg0SZbW0dm-36" value="" style="rounded=0;whiteSpace=wrap;html=1;glass=0;shadow=1;fillColor=#f5f5f5;strokeColor=#666666;fontColor=#333333;" parent="1" vertex="1">
          <mxGeometry x="120" y="800" width="240" height="40" as="geometry" />
        </mxCell>
        <mxCell id="JjnWdpa1GhNg0SZbW0dm-27" value="" style="rounded=0;whiteSpace=wrap;html=1;glass=0;shadow=1;fillColor=#f5f5f5;strokeColor=#666666;fontColor=#333333;" parent="1" vertex="1">
          <mxGeometry x="120" y="560" width="240" height="40" as="geometry" />
        </mxCell>
        <mxCell id="JjnWdpa1GhNg0SZbW0dm-1" value="" style="rounded=0;whiteSpace=wrap;html=1;glass=0;shadow=1;fillColor=#f5f5f5;strokeColor=#666666;fontColor=#333333;" parent="1" vertex="1">
          <mxGeometry x="120" y="400" width="240" height="40" as="geometry" />
        </mxCell>
        <mxCell id="JjnWdpa1GhNg0SZbW0dm-75" value="K" style="rounded=0;whiteSpace=wrap;html=1;glass=0;shadow=1;fillColor=#d5e8d4;gradientColor=#97d077;strokeColor=#82b366;" parent="1" vertex="1">
          <mxGeometry x="360" y="800" width="40" height="40" as="geometry" />
        </mxCell>
        <mxCell id="JjnWdpa1GhNg0SZbW0dm-73" value="1" style="rounded=0;whiteSpace=wrap;html=1;glass=0;shadow=1;fillColor=#f8cecc;strokeColor=#b85450;gradientColor=#ea6b66;" parent="1" vertex="1">
          <mxGeometry x="360" y="400" width="40" height="40" as="geometry" />
        </mxCell>
        <mxCell id="JjnWdpa1GhNg0SZbW0dm-74" value="2" style="rounded=0;whiteSpace=wrap;html=1;glass=0;shadow=1;fillColor=#dae8fc;gradientColor=#7ea6e0;strokeColor=#6c8ebf;" parent="1" vertex="1">
          <mxGeometry x="360" y="560" width="40" height="40" as="geometry" />
        </mxCell>
        <mxCell id="JjnWdpa1GhNg0SZbW0dm-45" value="" style="rounded=0;whiteSpace=wrap;html=1;glass=0;shadow=1;" parent="1" vertex="1">
          <mxGeometry x="120" y="80" width="40" height="40" as="geometry" />
        </mxCell>
        <mxCell id="JjnWdpa1GhNg0SZbW0dm-55" value="" style="rounded=0;whiteSpace=wrap;html=1;glass=0;shadow=1;" parent="1" vertex="1">
          <mxGeometry x="160" y="80" width="40" height="40" as="geometry" />
        </mxCell>
        <mxCell id="JjnWdpa1GhNg0SZbW0dm-10" value="0" style="rounded=0;whiteSpace=wrap;html=1;glass=0;shadow=1;opacity=0;" parent="1" vertex="1">
          <mxGeometry x="120" y="440" width="40" height="40" as="geometry" />
        </mxCell>
        <mxCell id="JjnWdpa1GhNg0SZbW0dm-11" value="1" style="rounded=0;whiteSpace=wrap;html=1;glass=0;shadow=1;opacity=0;" parent="1" vertex="1">
          <mxGeometry x="160" y="440" width="40" height="40" as="geometry" />
        </mxCell>
        <mxCell id="JjnWdpa1GhNg0SZbW0dm-12" value="2" style="rounded=0;whiteSpace=wrap;html=1;glass=0;shadow=1;opacity=0;" parent="1" vertex="1">
          <mxGeometry x="200" y="440" width="40" height="40" as="geometry" />
        </mxCell>
        <mxCell id="JjnWdpa1GhNg0SZbW0dm-13" value="... ..." style="rounded=0;whiteSpace=wrap;html=1;glass=0;shadow=1;opacity=0;" parent="1" vertex="1">
          <mxGeometry x="240" y="440" width="80" height="40" as="geometry" />
        </mxCell>
        <mxCell id="JjnWdpa1GhNg0SZbW0dm-16" value="N-1" style="rounded=0;whiteSpace=wrap;html=1;glass=0;shadow=1;opacity=0;" parent="1" vertex="1">
          <mxGeometry x="360" y="440" width="40" height="40" as="geometry" />
        </mxCell>
        <mxCell id="JjnWdpa1GhNg0SZbW0dm-17" value="N" style="rounded=0;whiteSpace=wrap;html=1;glass=0;shadow=1;opacity=0;" parent="1" vertex="1">
          <mxGeometry x="400" y="440" width="40" height="40" as="geometry" />
        </mxCell>
        <mxCell id="JjnWdpa1GhNg0SZbW0dm-29" value="0" style="rounded=0;whiteSpace=wrap;html=1;glass=0;shadow=1;opacity=0;" parent="1" vertex="1">
          <mxGeometry x="120" y="600" width="40" height="40" as="geometry" />
        </mxCell>
        <mxCell id="JjnWdpa1GhNg0SZbW0dm-30" value="1" style="rounded=0;whiteSpace=wrap;html=1;glass=0;shadow=1;opacity=0;" parent="1" vertex="1">
          <mxGeometry x="160" y="600" width="40" height="40" as="geometry" />
        </mxCell>
        <mxCell id="JjnWdpa1GhNg0SZbW0dm-31" value="2" style="rounded=0;whiteSpace=wrap;html=1;glass=0;shadow=1;opacity=0;" parent="1" vertex="1">
          <mxGeometry x="200" y="600" width="40" height="40" as="geometry" />
        </mxCell>
        <mxCell id="JjnWdpa1GhNg0SZbW0dm-32" value="... ..." style="rounded=0;whiteSpace=wrap;html=1;glass=0;shadow=1;opacity=0;" parent="1" vertex="1">
          <mxGeometry x="240" y="600" width="80" height="40" as="geometry" />
        </mxCell>
        <mxCell id="JjnWdpa1GhNg0SZbW0dm-33" value="N-1" style="rounded=0;whiteSpace=wrap;html=1;glass=0;shadow=1;opacity=0;" parent="1" vertex="1">
          <mxGeometry x="360" y="600" width="40" height="40" as="geometry" />
        </mxCell>
        <mxCell id="JjnWdpa1GhNg0SZbW0dm-34" value="N" style="rounded=0;whiteSpace=wrap;html=1;glass=0;shadow=1;opacity=0;" parent="1" vertex="1">
          <mxGeometry x="400" y="600" width="40" height="40" as="geometry" />
        </mxCell>
        <mxCell id="JjnWdpa1GhNg0SZbW0dm-38" value="0" style="rounded=0;whiteSpace=wrap;html=1;glass=0;shadow=1;opacity=0;" parent="1" vertex="1">
          <mxGeometry x="120" y="840" width="40" height="40" as="geometry" />
        </mxCell>
        <mxCell id="JjnWdpa1GhNg0SZbW0dm-39" value="1" style="rounded=0;whiteSpace=wrap;html=1;glass=0;shadow=1;opacity=0;" parent="1" vertex="1">
          <mxGeometry x="160" y="840" width="40" height="40" as="geometry" />
        </mxCell>
        <mxCell id="JjnWdpa1GhNg0SZbW0dm-40" value="2" style="rounded=0;whiteSpace=wrap;html=1;glass=0;shadow=1;opacity=0;" parent="1" vertex="1">
          <mxGeometry x="200" y="840" width="40" height="40" as="geometry" />
        </mxCell>
        <mxCell id="JjnWdpa1GhNg0SZbW0dm-41" value="... ..." style="rounded=0;whiteSpace=wrap;html=1;glass=0;shadow=1;opacity=0;" parent="1" vertex="1">
          <mxGeometry x="240" y="840" width="80" height="40" as="geometry" />
        </mxCell>
        <mxCell id="JjnWdpa1GhNg0SZbW0dm-42" value="N-1" style="rounded=0;whiteSpace=wrap;html=1;glass=0;shadow=1;opacity=0;" parent="1" vertex="1">
          <mxGeometry x="360" y="840" width="40" height="40" as="geometry" />
        </mxCell>
        <mxCell id="JjnWdpa1GhNg0SZbW0dm-43" value="N" style="rounded=0;whiteSpace=wrap;html=1;glass=0;shadow=1;opacity=0;" parent="1" vertex="1">
          <mxGeometry x="400" y="840" width="40" height="40" as="geometry" />
        </mxCell>
        <mxCell id="JjnWdpa1GhNg0SZbW0dm-47" value="0" style="rounded=0;whiteSpace=wrap;html=1;glass=0;shadow=1;opacity=0;" parent="1" vertex="1">
          <mxGeometry x="120" y="120" width="40" height="40" as="geometry" />
        </mxCell>
        <mxCell id="JjnWdpa1GhNg0SZbW0dm-48" value="1" style="rounded=0;whiteSpace=wrap;html=1;glass=0;shadow=1;opacity=0;" parent="1" vertex="1">
          <mxGeometry x="160" y="120" width="40" height="40" as="geometry" />
        </mxCell>
        <mxCell id="JjnWdpa1GhNg0SZbW0dm-49" value="2" style="rounded=0;whiteSpace=wrap;html=1;glass=0;shadow=1;opacity=0;" parent="1" vertex="1">
          <mxGeometry x="200" y="120" width="40" height="40" as="geometry" />
        </mxCell>
        <mxCell id="JjnWdpa1GhNg0SZbW0dm-50" value="... ..." style="rounded=0;whiteSpace=wrap;html=1;glass=0;shadow=1;opacity=0;" parent="1" vertex="1">
          <mxGeometry x="240" y="120" width="120" height="40" as="geometry" />
        </mxCell>
        <mxCell id="JjnWdpa1GhNg0SZbW0dm-51" value="N-1" style="rounded=0;whiteSpace=wrap;html=1;glass=0;shadow=1;opacity=0;" parent="1" vertex="1">
          <mxGeometry x="360" y="120" width="40" height="40" as="geometry" />
        </mxCell>
        <mxCell id="JjnWdpa1GhNg0SZbW0dm-52" value="N" style="rounded=0;whiteSpace=wrap;html=1;glass=0;shadow=1;opacity=0;" parent="1" vertex="1">
          <mxGeometry x="400" y="120" width="40" height="40" as="geometry" />
        </mxCell>
        <mxCell id="JjnWdpa1GhNg0SZbW0dm-54" value="" style="rounded=0;whiteSpace=wrap;html=1;glass=0;shadow=1;" parent="1" vertex="1">
          <mxGeometry x="200" y="80" width="40" height="40" as="geometry" />
        </mxCell>
        <mxCell id="JjnWdpa1GhNg0SZbW0dm-57" value="" style="rounded=0;whiteSpace=wrap;html=1;glass=0;shadow=1;" parent="1" vertex="1">
          <mxGeometry x="240" y="80" width="40" height="40" as="geometry" />
        </mxCell>
        <mxCell id="JjnWdpa1GhNg0SZbW0dm-56" value="" style="rounded=0;whiteSpace=wrap;html=1;glass=0;shadow=1;" parent="1" vertex="1">
          <mxGeometry x="280" y="80" width="40" height="40" as="geometry" />
        </mxCell>
        <mxCell id="JjnWdpa1GhNg0SZbW0dm-58" value="" style="rounded=0;whiteSpace=wrap;html=1;glass=0;shadow=1;" parent="1" vertex="1">
          <mxGeometry x="320" y="80" width="40" height="40" as="geometry" />
        </mxCell>
        <mxCell id="JjnWdpa1GhNg0SZbW0dm-53" value="" style="rounded=0;whiteSpace=wrap;html=1;glass=0;shadow=1;" parent="1" vertex="1">
          <mxGeometry x="360" y="80" width="40" height="40" as="geometry" />
        </mxCell>
        <mxCell id="JjnWdpa1GhNg0SZbW0dm-46" value="" style="rounded=0;whiteSpace=wrap;html=1;glass=0;shadow=1;" parent="1" vertex="1">
          <mxGeometry x="400" y="80" width="40" height="40" as="geometry" />
        </mxCell>
        <mxCell id="JjnWdpa1GhNg0SZbW0dm-59" value="&lt;font face=&quot;Comic Sans MS&quot;&gt;&lt;b&gt;原问题:用K种颜色粉刷从第0到第N个房子所花费的最低开销&lt;/b&gt;&lt;/font&gt;" style="text;html=1;strokeColor=none;fillColor=none;align=center;verticalAlign=middle;whiteSpace=wrap;rounded=0;shadow=1;glass=0;opacity=0;" parent="1" vertex="1">
          <mxGeometry x="40" y="40" width="480" height="40" as="geometry" />
        </mxCell>
        <mxCell id="JjnWdpa1GhNg0SZbW0dm-60" value="&lt;b&gt;&lt;font face=&quot;Comic Sans MS&quot;&gt;拆解子问题1:用K种颜色粉刷从第0到第N-1个房子所花费的最低开销&lt;br&gt;(其中第N-2个房子不能是第1中颜色，因为第N-1个房子要刷第1种颜色)&lt;/font&gt;&lt;/b&gt;" style="text;html=1;strokeColor=none;fillColor=none;align=center;verticalAlign=middle;whiteSpace=wrap;rounded=0;shadow=1;glass=0;opacity=0;" parent="1" vertex="1">
          <mxGeometry x="40" y="360" width="480" height="40" as="geometry" />
        </mxCell>
        <mxCell id="JjnWdpa1GhNg0SZbW0dm-61" value="&lt;b&gt;&lt;font face=&quot;Comic Sans MS&quot;&gt;拆解&lt;/font&gt;&lt;/b&gt;&lt;b&gt;&lt;font face=&quot;Comic Sans MS&quot;&gt;子问题2:用&lt;/font&gt;&lt;/b&gt;&lt;b&gt;&lt;font face=&quot;Comic Sans MS&quot;&gt;K种颜色&lt;/font&gt;&lt;/b&gt;&lt;b&gt;&lt;font face=&quot;Comic Sans MS&quot;&gt;粉刷从第0到第N-1个房子所花费的最低开销&lt;br&gt;(其中第N-2个房子不能是第2种颜色，因为第N-1个房子要刷第2种颜色)&lt;/font&gt;&lt;/b&gt;" style="text;html=1;strokeColor=none;fillColor=none;align=center;verticalAlign=middle;whiteSpace=wrap;rounded=0;shadow=1;glass=0;opacity=0;" parent="1" vertex="1">
          <mxGeometry x="40" y="520" width="480" height="40" as="geometry" />
        </mxCell>
        <mxCell id="JjnWdpa1GhNg0SZbW0dm-62" value="&lt;b&gt;&lt;font face=&quot;Comic Sans MS&quot;&gt;拆解&lt;/font&gt;&lt;/b&gt;&lt;b&gt;&lt;font face=&quot;Comic Sans MS&quot;&gt;子问题K:用&lt;/font&gt;&lt;/b&gt;&lt;b&gt;&lt;font face=&quot;Comic Sans MS&quot;&gt;K种颜色&lt;/font&gt;&lt;/b&gt;&lt;b&gt;&lt;font face=&quot;Comic Sans MS&quot;&gt;粉刷从第0到第N-1个房子所花费的最低开销&lt;br&gt;(其中第N-2个房子不能是第K种颜色，因为第N-1个房子要刷第K种颜色)&lt;/font&gt;&lt;/b&gt;" style="text;html=1;strokeColor=none;fillColor=none;align=center;verticalAlign=middle;whiteSpace=wrap;rounded=0;shadow=1;glass=0;opacity=0;" parent="1" vertex="1">
          <mxGeometry x="40" y="760" width="480" height="40" as="geometry" />
        </mxCell>
        <mxCell id="JjnWdpa1GhNg0SZbW0dm-63" value="" style="rounded=0;whiteSpace=wrap;html=1;glass=0;shadow=1;fillColor=#ffe6cc;strokeColor=#d79b00;" parent="1" vertex="1">
          <mxGeometry x="120" y="240" width="280" height="40" as="geometry" />
        </mxCell>
        <mxCell id="JjnWdpa1GhNg0SZbW0dm-65" value="0" style="rounded=0;whiteSpace=wrap;html=1;glass=0;shadow=1;opacity=0;" parent="1" vertex="1">
          <mxGeometry x="120" y="280" width="40" height="40" as="geometry" />
        </mxCell>
        <mxCell id="JjnWdpa1GhNg0SZbW0dm-66" value="1" style="rounded=0;whiteSpace=wrap;html=1;glass=0;shadow=1;opacity=0;" parent="1" vertex="1">
          <mxGeometry x="160" y="280" width="40" height="40" as="geometry" />
        </mxCell>
        <mxCell id="JjnWdpa1GhNg0SZbW0dm-67" value="2" style="rounded=0;whiteSpace=wrap;html=1;glass=0;shadow=1;opacity=0;" parent="1" vertex="1">
          <mxGeometry x="200" y="280" width="40" height="40" as="geometry" />
        </mxCell>
        <mxCell id="JjnWdpa1GhNg0SZbW0dm-68" value="... ..." style="rounded=0;whiteSpace=wrap;html=1;glass=0;shadow=1;opacity=0;" parent="1" vertex="1">
          <mxGeometry x="240" y="280" width="120" height="40" as="geometry" />
        </mxCell>
        <mxCell id="JjnWdpa1GhNg0SZbW0dm-69" value="N-1" style="rounded=0;whiteSpace=wrap;html=1;glass=0;shadow=1;opacity=0;" parent="1" vertex="1">
          <mxGeometry x="360" y="280" width="40" height="40" as="geometry" />
        </mxCell>
        <mxCell id="JjnWdpa1GhNg0SZbW0dm-70" value="N" style="rounded=0;whiteSpace=wrap;html=1;glass=0;shadow=1;opacity=0;" parent="1" vertex="1">
          <mxGeometry x="400" y="280" width="40" height="40" as="geometry" />
        </mxCell>
        <mxCell id="JjnWdpa1GhNg0SZbW0dm-72" value="&lt;b&gt;&lt;font face=&quot;Comic Sans MS&quot;&gt;子问题:用K种颜色粉刷从第0到第N-1个房子所花费的最低开销&lt;/font&gt;&lt;/b&gt;" style="text;html=1;strokeColor=none;fillColor=none;align=center;verticalAlign=middle;whiteSpace=wrap;rounded=0;shadow=1;glass=0;opacity=0;" parent="1" vertex="1">
          <mxGeometry x="40" y="200" width="480" height="40" as="geometry" />
        </mxCell>
        <mxCell id="JjnWdpa1GhNg0SZbW0dm-64" value="" style="rounded=0;whiteSpace=wrap;html=1;glass=0;shadow=1;" parent="1" vertex="1">
          <mxGeometry x="400" y="240" width="40" height="40" as="geometry" />
        </mxCell>
        <mxCell id="JjnWdpa1GhNg0SZbW0dm-9" value="" style="rounded=0;whiteSpace=wrap;html=1;glass=0;shadow=1;" parent="1" vertex="1">
          <mxGeometry x="400" y="400" width="40" height="40" as="geometry" />
        </mxCell>
        <mxCell id="JjnWdpa1GhNg0SZbW0dm-28" value="" style="rounded=0;whiteSpace=wrap;html=1;glass=0;shadow=1;" parent="1" vertex="1">
          <mxGeometry x="400" y="560" width="40" height="40" as="geometry" />
        </mxCell>
        <mxCell id="JjnWdpa1GhNg0SZbW0dm-37" value="" style="rounded=0;whiteSpace=wrap;html=1;glass=0;shadow=1;" parent="1" vertex="1">
          <mxGeometry x="400" y="800" width="40" height="40" as="geometry" />
        </mxCell>
        <mxCell id="JjnWdpa1GhNg0SZbW0dm-76" value="N-2" style="rounded=0;whiteSpace=wrap;html=1;glass=0;shadow=1;opacity=0;" parent="1" vertex="1">
          <mxGeometry x="320" y="440" width="40" height="40" as="geometry" />
        </mxCell>
        <mxCell id="JjnWdpa1GhNg0SZbW0dm-77" value="N-2" style="rounded=0;whiteSpace=wrap;html=1;glass=0;shadow=1;opacity=0;" parent="1" vertex="1">
          <mxGeometry x="320" y="600" width="40" height="40" as="geometry" />
        </mxCell>
        <mxCell id="JjnWdpa1GhNg0SZbW0dm-78" value="N-2" style="rounded=0;whiteSpace=wrap;html=1;glass=0;shadow=1;opacity=0;" parent="1" vertex="1">
          <mxGeometry x="320" y="840" width="40" height="40" as="geometry" />
        </mxCell>
        <mxCell id="XFPlNN1l338RoupQk237-1" value="&lt;font style=&quot;font-size: 16px&quot;&gt;&lt;b&gt;... ...&lt;/b&gt;&lt;/font&gt;" style="rounded=0;whiteSpace=wrap;html=1;glass=0;shadow=1;opacity=0;" parent="1" vertex="1">
          <mxGeometry x="240" y="680" width="80" height="40" as="geometry" />
        </mxCell>
        <mxCell id="XFPlNN1l338RoupQk237-5" value="" style="rounded=0;whiteSpace=wrap;html=1;fontFamily=Helvetica;fontSize=16;fillColor=#f5f5f5;fontColor=#333333;strokeColor=#666666;" parent="1" vertex="1">
          <mxGeometry x="200" y="1120" width="40" height="40" as="geometry" />
        </mxCell>
        <mxCell id="XFPlNN1l338RoupQk237-6" value="" style="rounded=0;whiteSpace=wrap;html=1;fontFamily=Helvetica;fontSize=16;fillColor=#dae8fc;strokeColor=#6c8ebf;" parent="1" vertex="1">
          <mxGeometry x="240" y="1120" width="40" height="40" as="geometry" />
        </mxCell>
        <mxCell id="XFPlNN1l338RoupQk237-7" value="" style="rounded=0;whiteSpace=wrap;html=1;fontFamily=Helvetica;fontSize=16;fillColor=#d5e8d4;strokeColor=#82b366;" parent="1" vertex="1">
          <mxGeometry x="280" y="1120" width="40" height="40" as="geometry" />
        </mxCell>
        <mxCell id="XFPlNN1l338RoupQk237-8" value="" style="rounded=0;whiteSpace=wrap;html=1;fontFamily=Helvetica;fontSize=16;fillColor=#ffe6cc;strokeColor=#d79b00;" parent="1" vertex="1">
          <mxGeometry x="320" y="1120" width="40" height="40" as="geometry" />
        </mxCell>
        <mxCell id="XFPlNN1l338RoupQk237-9" value="" style="rounded=0;whiteSpace=wrap;html=1;fontFamily=Helvetica;fontSize=16;fillColor=#fff2cc;strokeColor=#d6b656;" parent="1" vertex="1">
          <mxGeometry x="360" y="1120" width="40" height="40" as="geometry" />
        </mxCell>
        <mxCell id="XFPlNN1l338RoupQk237-10" value="" style="rounded=0;whiteSpace=wrap;html=1;fontFamily=Helvetica;fontSize=16;fillColor=#f8cecc;strokeColor=#b85450;" parent="1" vertex="1">
          <mxGeometry x="400" y="1120" width="40" height="40" as="geometry" />
        </mxCell>
        <mxCell id="XFPlNN1l338RoupQk237-11" value="" style="rounded=0;whiteSpace=wrap;html=1;fontFamily=Helvetica;fontSize=16;fillColor=#e1d5e7;strokeColor=#9673a6;" parent="1" vertex="1">
          <mxGeometry x="440" y="1120" width="40" height="40" as="geometry" />
        </mxCell>
        <mxCell id="XFPlNN1l338RoupQk237-12" value="" style="rounded=0;whiteSpace=wrap;html=1;fontFamily=Helvetica;fontSize=16;fillColor=#1ba1e2;fontColor=#ffffff;strokeColor=#006EAF;" parent="1" vertex="1">
          <mxGeometry x="480" y="1120" width="40" height="40" as="geometry" />
        </mxCell>
        <mxCell id="XFPlNN1l338RoupQk237-37" value="" style="rounded=0;whiteSpace=wrap;html=1;fontFamily=Helvetica;fontSize=16;fillColor=#f5f5f5;fontColor=#333333;strokeColor=#666666;" parent="1" vertex="1">
          <mxGeometry x="200" y="1160" width="40" height="40" as="geometry" />
        </mxCell>
        <mxCell id="XFPlNN1l338RoupQk237-39" value="" style="rounded=0;whiteSpace=wrap;html=1;fontFamily=Helvetica;fontSize=16;fillColor=#d5e8d4;strokeColor=#82b366;strokeWidth=1;" parent="1" vertex="1">
          <mxGeometry x="280" y="1160" width="40" height="40" as="geometry" />
        </mxCell>
        <mxCell id="XFPlNN1l338RoupQk237-40" value="" style="rounded=0;whiteSpace=wrap;html=1;fontFamily=Helvetica;fontSize=16;fillColor=#ffe6cc;strokeColor=#d79b00;" parent="1" vertex="1">
          <mxGeometry x="320" y="1160" width="40" height="40" as="geometry" />
        </mxCell>
        <mxCell id="XFPlNN1l338RoupQk237-41" value="" style="rounded=0;whiteSpace=wrap;html=1;fontFamily=Helvetica;fontSize=16;fillColor=#fff2cc;strokeColor=#d6b656;" parent="1" vertex="1">
          <mxGeometry x="360" y="1160" width="40" height="40" as="geometry" />
        </mxCell>
        <mxCell id="XFPlNN1l338RoupQk237-42" value="" style="rounded=0;whiteSpace=wrap;html=1;fontFamily=Helvetica;fontSize=16;fillColor=#f8cecc;strokeColor=#b85450;" parent="1" vertex="1">
          <mxGeometry x="400" y="1160" width="40" height="40" as="geometry" />
        </mxCell>
        <mxCell id="XFPlNN1l338RoupQk237-43" value="" style="rounded=0;whiteSpace=wrap;html=1;fontFamily=Helvetica;fontSize=16;fillColor=#e1d5e7;strokeColor=#9673a6;" parent="1" vertex="1">
          <mxGeometry x="440" y="1160" width="40" height="40" as="geometry" />
        </mxCell>
        <mxCell id="XFPlNN1l338RoupQk237-44" value="" style="rounded=0;whiteSpace=wrap;html=1;fontFamily=Helvetica;fontSize=16;fillColor=#1ba1e2;fontColor=#ffffff;strokeColor=#006EAF;" parent="1" vertex="1">
          <mxGeometry x="480" y="1160" width="40" height="40" as="geometry" />
        </mxCell>
        <mxCell id="XFPlNN1l338RoupQk237-45" value="" style="rounded=0;whiteSpace=wrap;html=1;fontFamily=Helvetica;fontSize=16;fillColor=#f5f5f5;fontColor=#333333;strokeColor=#666666;" parent="1" vertex="1">
          <mxGeometry x="200" y="1200" width="40" height="40" as="geometry" />
        </mxCell>
        <mxCell id="XFPlNN1l338RoupQk237-46" value="" style="rounded=0;whiteSpace=wrap;html=1;fontFamily=Helvetica;fontSize=16;fillColor=#dae8fc;strokeColor=#6c8ebf;" parent="1" vertex="1">
          <mxGeometry x="240" y="1200" width="40" height="40" as="geometry" />
        </mxCell>
        <mxCell id="XFPlNN1l338RoupQk237-47" value="" style="rounded=0;whiteSpace=wrap;html=1;fontFamily=Helvetica;fontSize=16;fillColor=#d5e8d4;strokeColor=#82b366;" parent="1" vertex="1">
          <mxGeometry x="280" y="1200" width="40" height="40" as="geometry" />
        </mxCell>
        <mxCell id="XFPlNN1l338RoupQk237-48" value="" style="rounded=0;whiteSpace=wrap;html=1;fontFamily=Helvetica;fontSize=16;fillColor=#ffe6cc;strokeColor=#d79b00;" parent="1" vertex="1">
          <mxGeometry x="320" y="1200" width="40" height="40" as="geometry" />
        </mxCell>
        <mxCell id="XFPlNN1l338RoupQk237-49" value="" style="rounded=0;whiteSpace=wrap;html=1;fontFamily=Helvetica;fontSize=16;fillColor=#fff2cc;strokeColor=#d6b656;" parent="1" vertex="1">
          <mxGeometry x="360" y="1200" width="40" height="40" as="geometry" />
        </mxCell>
        <mxCell id="XFPlNN1l338RoupQk237-50" value="" style="rounded=0;whiteSpace=wrap;html=1;fontFamily=Helvetica;fontSize=16;fillColor=#f8cecc;strokeColor=#b85450;" parent="1" vertex="1">
          <mxGeometry x="400" y="1200" width="40" height="40" as="geometry" />
        </mxCell>
        <mxCell id="XFPlNN1l338RoupQk237-51" value="" style="rounded=0;whiteSpace=wrap;html=1;fontFamily=Helvetica;fontSize=16;fillColor=#e1d5e7;strokeColor=#9673a6;" parent="1" vertex="1">
          <mxGeometry x="440" y="1200" width="40" height="40" as="geometry" />
        </mxCell>
        <mxCell id="XFPlNN1l338RoupQk237-52" value="" style="rounded=0;whiteSpace=wrap;html=1;fontFamily=Helvetica;fontSize=16;fillColor=#1ba1e2;fontColor=#ffffff;strokeColor=#006EAF;" parent="1" vertex="1">
          <mxGeometry x="480" y="1200" width="40" height="40" as="geometry" />
        </mxCell>
        <mxCell id="XFPlNN1l338RoupQk237-53" value="" style="rounded=0;whiteSpace=wrap;html=1;fontFamily=Helvetica;fontSize=16;fillColor=#f5f5f5;fontColor=#333333;strokeColor=#666666;" parent="1" vertex="1">
          <mxGeometry x="200" y="1240" width="40" height="40" as="geometry" />
        </mxCell>
        <mxCell id="XFPlNN1l338RoupQk237-54" value="" style="rounded=0;whiteSpace=wrap;html=1;fontFamily=Helvetica;fontSize=16;fillColor=#dae8fc;strokeColor=#6c8ebf;" parent="1" vertex="1">
          <mxGeometry x="240" y="1240" width="40" height="40" as="geometry" />
        </mxCell>
        <mxCell id="XFPlNN1l338RoupQk237-55" value="" style="rounded=0;whiteSpace=wrap;html=1;fontFamily=Helvetica;fontSize=16;fillColor=#d5e8d4;strokeColor=#82b366;" parent="1" vertex="1">
          <mxGeometry x="280" y="1240" width="40" height="40" as="geometry" />
        </mxCell>
        <mxCell id="XFPlNN1l338RoupQk237-56" value="" style="rounded=0;whiteSpace=wrap;html=1;fontFamily=Helvetica;fontSize=16;fillColor=#ffe6cc;strokeColor=#d79b00;" parent="1" vertex="1">
          <mxGeometry x="320" y="1240" width="40" height="40" as="geometry" />
        </mxCell>
        <mxCell id="XFPlNN1l338RoupQk237-57" value="" style="rounded=0;whiteSpace=wrap;html=1;fontFamily=Helvetica;fontSize=16;fillColor=#fff2cc;strokeColor=#d6b656;" parent="1" vertex="1">
          <mxGeometry x="360" y="1240" width="40" height="40" as="geometry" />
        </mxCell>
        <mxCell id="XFPlNN1l338RoupQk237-58" value="" style="rounded=0;whiteSpace=wrap;html=1;fontFamily=Helvetica;fontSize=16;fillColor=#f8cecc;strokeColor=#b85450;" parent="1" vertex="1">
          <mxGeometry x="400" y="1240" width="40" height="40" as="geometry" />
        </mxCell>
        <mxCell id="XFPlNN1l338RoupQk237-59" value="" style="rounded=0;whiteSpace=wrap;html=1;fontFamily=Helvetica;fontSize=16;fillColor=#e1d5e7;strokeColor=#9673a6;" parent="1" vertex="1">
          <mxGeometry x="440" y="1240" width="40" height="40" as="geometry" />
        </mxCell>
        <mxCell id="XFPlNN1l338RoupQk237-60" value="" style="rounded=0;whiteSpace=wrap;html=1;fontFamily=Helvetica;fontSize=16;fillColor=#1ba1e2;fontColor=#ffffff;strokeColor=#006EAF;" parent="1" vertex="1">
          <mxGeometry x="480" y="1240" width="40" height="40" as="geometry" />
        </mxCell>
        <mxCell id="XFPlNN1l338RoupQk237-61" value="0" style="rounded=0;whiteSpace=wrap;html=1;fontFamily=Helvetica;fontSize=16;fillColor=#f5f5f5;fontColor=#333333;strokeColor=#666666;opacity=0;" parent="1" vertex="1">
          <mxGeometry x="200" y="1080" width="40" height="40" as="geometry" />
        </mxCell>
        <mxCell id="XFPlNN1l338RoupQk237-62" value="1" style="rounded=0;whiteSpace=wrap;html=1;fontFamily=Helvetica;fontSize=16;fillColor=#dae8fc;strokeColor=#6c8ebf;opacity=0;" parent="1" vertex="1">
          <mxGeometry x="240" y="1080" width="40" height="40" as="geometry" />
        </mxCell>
        <mxCell id="XFPlNN1l338RoupQk237-63" value="2" style="rounded=0;whiteSpace=wrap;html=1;fontFamily=Helvetica;fontSize=16;fillColor=#d5e8d4;strokeColor=#82b366;opacity=0;" parent="1" vertex="1">
          <mxGeometry x="280" y="1080" width="40" height="40" as="geometry" />
        </mxCell>
        <mxCell id="XFPlNN1l338RoupQk237-64" value="3" style="rounded=0;whiteSpace=wrap;html=1;fontFamily=Helvetica;fontSize=16;fillColor=#ffe6cc;strokeColor=#d79b00;opacity=0;" parent="1" vertex="1">
          <mxGeometry x="320" y="1080" width="40" height="40" as="geometry" />
        </mxCell>
        <mxCell id="XFPlNN1l338RoupQk237-65" value="4" style="rounded=0;whiteSpace=wrap;html=1;fontFamily=Helvetica;fontSize=16;fillColor=#fff2cc;strokeColor=#d6b656;opacity=0;" parent="1" vertex="1">
          <mxGeometry x="360" y="1080" width="40" height="40" as="geometry" />
        </mxCell>
        <mxCell id="XFPlNN1l338RoupQk237-66" value="5" style="rounded=0;whiteSpace=wrap;html=1;fontFamily=Helvetica;fontSize=16;fillColor=#f8cecc;strokeColor=#b85450;opacity=0;" parent="1" vertex="1">
          <mxGeometry x="400" y="1080" width="40" height="40" as="geometry" />
        </mxCell>
        <mxCell id="XFPlNN1l338RoupQk237-67" value="6" style="rounded=0;whiteSpace=wrap;html=1;fontFamily=Helvetica;fontSize=16;fillColor=#e1d5e7;strokeColor=#9673a6;opacity=0;" parent="1" vertex="1">
          <mxGeometry x="440" y="1080" width="40" height="40" as="geometry" />
        </mxCell>
        <mxCell id="XFPlNN1l338RoupQk237-68" value="&lt;font color=&quot;#000a20&quot;&gt;7&lt;/font&gt;" style="rounded=0;whiteSpace=wrap;html=1;fontFamily=Helvetica;fontSize=16;fillColor=#1ba1e2;fontColor=#ffffff;strokeColor=#006EAF;opacity=0;" parent="1" vertex="1">
          <mxGeometry x="480" y="1080" width="40" height="40" as="geometry" />
        </mxCell>
        <mxCell id="XFPlNN1l338RoupQk237-69" value="0" style="rounded=0;whiteSpace=wrap;html=1;fontFamily=Helvetica;fontSize=16;fillColor=#f5f5f5;fontColor=#333333;strokeColor=#666666;opacity=0;" parent="1" vertex="1">
          <mxGeometry x="160" y="1120" width="40" height="40" as="geometry" />
        </mxCell>
        <mxCell id="XFPlNN1l338RoupQk237-70" value="1" style="rounded=0;whiteSpace=wrap;html=1;fontFamily=Helvetica;fontSize=16;fillColor=#f5f5f5;fontColor=#333333;strokeColor=#666666;opacity=0;" parent="1" vertex="1">
          <mxGeometry x="160" y="1160" width="40" height="40" as="geometry" />
        </mxCell>
        <mxCell id="XFPlNN1l338RoupQk237-71" value="2" style="rounded=0;whiteSpace=wrap;html=1;fontFamily=Helvetica;fontSize=16;fillColor=#f5f5f5;fontColor=#333333;strokeColor=#666666;opacity=0;" parent="1" vertex="1">
          <mxGeometry x="160" y="1200" width="40" height="40" as="geometry" />
        </mxCell>
        <mxCell id="XFPlNN1l338RoupQk237-72" value="..." style="rounded=0;whiteSpace=wrap;html=1;fontFamily=Helvetica;fontSize=16;fillColor=#f5f5f5;fontColor=#333333;strokeColor=#666666;opacity=0;" parent="1" vertex="1">
          <mxGeometry x="160" y="1240" width="40" height="40" as="geometry" />
        </mxCell>
        <mxCell id="XFPlNN1l338RoupQk237-73" value="" style="rounded=0;whiteSpace=wrap;html=1;fontFamily=Helvetica;fontSize=16;fillColor=#f5f5f5;fontColor=#333333;strokeColor=#666666;" parent="1" vertex="1">
          <mxGeometry x="200" y="1280" width="40" height="40" as="geometry" />
        </mxCell>
        <mxCell id="XFPlNN1l338RoupQk237-74" value="" style="rounded=0;whiteSpace=wrap;html=1;fontFamily=Helvetica;fontSize=16;fillColor=#dae8fc;strokeColor=#6c8ebf;" parent="1" vertex="1">
          <mxGeometry x="240" y="1280" width="40" height="40" as="geometry" />
        </mxCell>
        <mxCell id="XFPlNN1l338RoupQk237-75" value="" style="rounded=0;whiteSpace=wrap;html=1;fontFamily=Helvetica;fontSize=16;fillColor=#d5e8d4;strokeColor=#82b366;" parent="1" vertex="1">
          <mxGeometry x="280" y="1280" width="40" height="40" as="geometry" />
        </mxCell>
        <mxCell id="XFPlNN1l338RoupQk237-76" value="" style="rounded=0;whiteSpace=wrap;html=1;fontFamily=Helvetica;fontSize=16;fillColor=#ffe6cc;strokeColor=#d79b00;" parent="1" vertex="1">
          <mxGeometry x="320" y="1280" width="40" height="40" as="geometry" />
        </mxCell>
        <mxCell id="XFPlNN1l338RoupQk237-77" value="" style="rounded=0;whiteSpace=wrap;html=1;fontFamily=Helvetica;fontSize=16;fillColor=#fff2cc;strokeColor=#d6b656;" parent="1" vertex="1">
          <mxGeometry x="360" y="1280" width="40" height="40" as="geometry" />
        </mxCell>
        <mxCell id="XFPlNN1l338RoupQk237-78" value="" style="rounded=0;whiteSpace=wrap;html=1;fontFamily=Helvetica;fontSize=16;fillColor=#f8cecc;strokeColor=#b85450;" parent="1" vertex="1">
          <mxGeometry x="400" y="1280" width="40" height="40" as="geometry" />
        </mxCell>
        <mxCell id="XFPlNN1l338RoupQk237-79" value="" style="rounded=0;whiteSpace=wrap;html=1;fontFamily=Helvetica;fontSize=16;fillColor=#e1d5e7;strokeColor=#9673a6;" parent="1" vertex="1">
          <mxGeometry x="440" y="1280" width="40" height="40" as="geometry" />
        </mxCell>
        <mxCell id="XFPlNN1l338RoupQk237-80" value="" style="rounded=0;whiteSpace=wrap;html=1;fontFamily=Helvetica;fontSize=16;fillColor=#1ba1e2;fontColor=#ffffff;strokeColor=#006EAF;" parent="1" vertex="1">
          <mxGeometry x="480" y="1280" width="40" height="40" as="geometry" />
        </mxCell>
        <mxCell id="XFPlNN1l338RoupQk237-81" value="N" style="rounded=0;whiteSpace=wrap;html=1;fontFamily=Helvetica;fontSize=16;fillColor=#f5f5f5;fontColor=#333333;strokeColor=#666666;opacity=0;" parent="1" vertex="1">
          <mxGeometry x="160" y="1280" width="40" height="40" as="geometry" />
        </mxCell>
        <mxCell id="XFPlNN1l338RoupQk237-82" value="" style="rounded=0;whiteSpace=wrap;html=1;fontFamily=Comic Sans MS;fontSize=16;strokeWidth=1;fillColor=#f5f5f5;strokeColor=#666666;gradientColor=#b3b3b3;" parent="1" vertex="1">
          <mxGeometry x="200" y="1120" width="40" height="40" as="geometry" />
        </mxCell>
        <mxCell id="XFPlNN1l338RoupQk237-84" value="&lt;font style=&quot;font-size: 14px&quot;&gt;dp[1][1] = min(dp[0][0], dp[0][2] ... dp[0][7]) + cost[1][1]&lt;/font&gt;" style="text;html=1;strokeColor=none;fillColor=none;align=center;verticalAlign=middle;whiteSpace=wrap;rounded=0;fontFamily=Comic Sans MS;fontSize=16;fontColor=#000A20;" parent="1" vertex="1">
          <mxGeometry x="120" y="1040" width="480" height="40" as="geometry" />
        </mxCell>
        <mxCell id="XFPlNN1l338RoupQk237-85" value="" style="text;html=1;strokeColor=#666666;fillColor=#f5f5f5;align=center;verticalAlign=middle;whiteSpace=wrap;rounded=0;fontFamily=Comic Sans MS;fontSize=14;opacity=30;strokeWidth=3;gradientColor=#b3b3b3;" parent="1" vertex="1">
          <mxGeometry x="270" y="1110" width="260" height="60" as="geometry" />
        </mxCell>
        <mxCell id="XFPlNN1l338RoupQk237-87" value="" style="text;html=1;strokeColor=#666666;fillColor=#f5f5f5;align=center;verticalAlign=middle;whiteSpace=wrap;rounded=0;fontFamily=Comic Sans MS;fontSize=14;opacity=30;strokeWidth=3;gradientColor=#b3b3b3;" parent="1" vertex="1">
          <mxGeometry x="190" y="1110" width="60" height="60" as="geometry" />
        </mxCell>
      </root>
    </mxGraphModel>
  </diagram>
</mxfile>
